<svg width="54" height="36" viewBox="0 0 54 36" fill="none" xmlns="http://www.w3.org/2000/svg">
<path d="M43.0762 35.7598C41.3509 35.7598 39.7559 35.4831 38.291 34.9297C36.8587 34.3763 35.6217 33.5788 34.5801 32.5371C33.5384 31.4629 32.7246 30.1771 32.1387 28.6797C31.5527 27.1823 31.2598 25.4896 31.2598 23.6016C31.2598 19.3372 32.7083 15.2682 35.6055 11.3945C38.5352 7.48828 42.7832 4.02148 48.3496 0.994141L53.7207 8.66016C52.2559 9.44141 50.9538 10.2064 49.8145 10.9551C48.7077 11.7038 47.7311 12.4688 46.8848 13.25C46.071 14.0312 45.3548 14.8451 44.7363 15.6914C44.1504 16.5052 43.6133 17.3841 43.125 18.3281C44.7201 18.3281 46.1523 18.556 47.4219 19.0117C48.724 19.4674 49.8307 20.1022 50.7422 20.916C51.6862 21.6973 52.4023 22.625 52.8906 23.6992C53.4115 24.7409 53.6719 25.8639 53.6719 27.0684C53.6719 28.2728 53.4115 29.4121 52.8906 30.4863C52.4023 31.528 51.6862 32.4395 50.7422 33.2207C49.8307 34.002 48.724 34.6204 47.4219 35.0762C46.1198 35.5319 44.6712 35.7598 43.0762 35.7598ZM12.7051 35.7598C10.9798 35.7598 9.38477 35.4831 7.91992 34.9297C6.48763 34.3763 5.25065 33.5788 4.20898 32.5371C3.16732 31.4629 2.35352 30.1771 1.76758 28.6797C1.18164 27.1823 0.888672 25.4896 0.888672 23.6016C0.888672 19.3372 2.33724 15.2682 5.23438 11.3945C8.16406 7.48828 12.4121 4.02148 17.9785 0.994141L23.3496 8.66016C21.8848 9.44141 20.5827 10.2064 19.4434 10.9551C18.3366 11.7038 17.36 12.4688 16.5137 13.25C15.6999 14.0312 14.9837 14.8451 14.3652 15.6914C13.7793 16.5052 13.2422 17.3841 12.7539 18.3281C14.349 18.3281 15.7812 18.556 17.0508 19.0117C18.3529 19.4674 19.4596 20.1022 20.3711 20.916C21.3151 21.6973 22.0312 22.625 22.5195 23.6992C23.0404 24.7409 23.3008 25.8639 23.3008 27.0684C23.3008 28.2728 23.0404 29.4121 22.5195 30.4863C22.0312 31.528 21.3151 32.4395 20.3711 33.2207C19.4596 34.002 18.3529 34.6204 17.0508 35.0762C15.7487 35.5319 14.3001 35.7598 12.7051 35.7598Z" fill="black"/>
</svg>
