<svg width="79" height="123" viewBox="0 0 79 123" fill="none" xmlns="http://www.w3.org/2000/svg">
<path fill-rule="evenodd" clip-rule="evenodd" d="M6.42179 115.788C18.3504 101.745 36.6941 93.5251 56.44 95.3113C64.4375 96.0347 71.9143 98.3316 78.5924 101.869C74.5291 100.511 70.2548 99.6014 65.8172 99.1999C47.883 97.5777 31.0819 104.599 19.2294 116.947L6.42179 115.788Z" fill="white"/>
<path d="M34.5444 90.709C23.5965 78.1975 23.1209 61.5398 23.597 56.3025C25.1608 39.0993 39.2362 34.4074 47.0559 28.1516" stroke="white" stroke-width="2" stroke-linecap="round"/>
<rect y="19.2832" width="6.25574" height="31.3139" rx="3.12787" transform="rotate(-35 0 19.2832)" fill="white"/>
<circle cx="28.5077" cy="21.8949" r="6.25574" fill="white"/>
<path d="M55.4521 78.0356C41.2068 80.8046 26.1324 70.9103 23.5967 57.8652" stroke="white" stroke-width="2" stroke-linecap="round"/>
<circle cx="62.9149" cy="9.38361" r="9.38361" fill="white"/>
</svg>
