<svg width="14" height="18" viewBox="0 0 14 18" fill="none" xmlns="http://www.w3.org/2000/svg">
<path d="M12.0077 4H9.79774C9.60514 3.27179 9.26475 2.59101 8.79774 2H12.0077C12.273 2 12.5273 1.89464 12.7148 1.70711C12.9024 1.51957 13.0077 1.26522 13.0077 1C13.0077 0.734784 12.9024 0.48043 12.7148 0.292893C12.5273 0.105357 12.273 0 12.0077 0H1.00774C0.742522 0 0.488168 0.105357 0.300632 0.292893C0.113095 0.48043 0.00773837 0.734784 0.00773837 1C0.00773837 1.26522 0.113095 1.51957 0.300632 1.70711C0.488168 1.89464 0.742522 2 1.00774 2H4.50774C5.16798 2.00232 5.81409 2.19134 6.37148 2.54523C6.92886 2.89913 7.37478 3.40346 7.65774 4H1.00774C0.742522 4 0.488168 4.10536 0.300632 4.29289C0.113095 4.48043 0.00773837 4.73478 0.00773837 5C0.00773837 5.26522 0.113095 5.51957 0.300632 5.70711C0.488168 5.89464 0.742522 6 1.00774 6H8.00774C7.88786 6.8306 7.47353 7.59048 6.84026 8.14115C6.20699 8.69182 5.39694 8.99662 4.55774 9H1.00774C0.961189 8.99532 0.914288 8.99532 0.867738 9C0.801471 8.98968 0.734006 8.98968 0.667738 9C0.599575 9.02322 0.535466 9.05696 0.477738 9.1L0.357738 9.17C0.302961 9.21947 0.255786 9.27675 0.217738 9.34C0.184246 9.38433 0.15416 9.43113 0.127738 9.48C0.118837 9.53967 0.118837 9.60033 0.127738 9.66C0.0564767 9.75975 0.0148761 9.87762 0.00773837 10C0.00305998 10.0465 0.00305998 10.0935 0.00773837 10.14C-0.00257946 10.2063 -0.00257946 10.2737 0.00773837 10.34C0.0309533 10.4082 0.064695 10.4723 0.107738 10.53C0.107738 10.53 0.107738 10.61 0.177738 10.65L6.17774 17.65C6.35013 17.8516 6.59553 17.9764 6.85996 17.997C7.12438 18.0177 7.38617 17.9324 7.58774 17.76C7.7893 17.5876 7.91413 17.3422 7.93476 17.0778C7.95539 16.8134 7.87013 16.5516 7.69774 16.35L3.18774 11H4.50774C5.8838 11.0057 7.212 10.4954 8.23021 9.56972C9.24842 8.64407 9.88265 7.37037 10.0077 6H12.0077C12.273 6 12.5273 5.89464 12.7148 5.70711C12.9024 5.51957 13.0077 5.26522 13.0077 5C13.0077 4.73478 12.9024 4.48043 12.7148 4.29289C12.5273 4.10536 12.273 4 12.0077 4Z" fill="#053742"/>
</svg>
